<svg xmlns="http://www.w3.org/2000/svg" version="1.1" xmlns:xlink="http://www.w3.org/1999/xlink" xmlns:svgjs="http://svgjs.com/svgjs" width="512" height="512" x="0" y="0" viewBox="0 0 512 512" style="enable-background:new 0 0 512 512" xml:space="preserve" class=""><g><g fill-rule="evenodd" stroke-linecap="round" clip-rule="evenodd"><path d="M40.116 490a11 11 0 0 0-11 10.999 11 11 0 0 0 11 11.001h230.598A11 11 0 0 0 281.716 501 11 11 0 0 0 270.714 490zM386.019 0c-24.95 0-49.9 9.512-68.924 28.537L52.128 293.502a80.623 80.623 0 0 0-23.61 57v64.627c0 21.87 17.965 39.834 39.835 39.834h64.625a80.628 80.628 0 0 0 57.001-23.61l264.965-264.966c38.05-38.05 38.05-99.8 0-137.85C435.92 9.512 410.97 0 386.02 0zm-.002 86.453a11 11 0 0 1 7.777 3.22 11 11 0 0 1 0 15.558L134.37 364.656a11 11 0 0 1-15.557 0 11 11 0 0 1 0-15.556L378.237 89.674a11 11 0 0 1 7.78-3.22z" fill="#000000" data-original="#000000"></path></g></g></svg>