<svg xmlns="http://www.w3.org/2000/svg" version="1.1" xmlns:xlink="http://www.w3.org/1999/xlink" xmlns:svgjs="http://svgjs.com/svgjs" width="512" height="512" x="0" y="0" viewBox="0 0 32 32" style="enable-background:new 0 0 512 512" xml:space="preserve" class=""><g><path d="M25.792 31.654H6.208A5.214 5.214 0 0 1 1 26.446V6.863a5.214 5.214 0 0 1 5.208-5.208h19.583A5.213 5.213 0 0 1 31 6.863v19.583a5.214 5.214 0 0 1-5.208 5.208zm-19.584-28A3.212 3.212 0 0 0 3 6.863v19.583a3.212 3.212 0 0 0 3.208 3.208h19.583a3.212 3.212 0 0 0 3.208-3.208V6.863a3.212 3.212 0 0 0-3.208-3.208H6.208z" fill="#000000" data-original="#000000" class=""></path><path d="M21.438 17H10.563a1 1 0 0 1 0-2h10.875a1 1 0 1 1 0 2z" fill="#000000" data-original="#000000" class=""></path><path d="M16 22.438a1 1 0 0 1-1-1V10.563a1 1 0 0 1 2 0v10.875a1 1 0 0 1-1 1z" fill="#000000" data-original="#000000" class=""></path></g></svg>