<svg xmlns="http://www.w3.org/2000/svg" version="1.1" xmlns:xlink="http://www.w3.org/1999/xlink" xmlns:svgjs="http://svgjs.com/svgjs" width="512" height="512" x="0" y="0" viewBox="0 0 24 24" style="enable-background:new 0 0 512 512" xml:space="preserve" class=""><g><g fill="#000" fill-rule="evenodd" clip-rule="evenodd"><path d="M12 4a2 2 0 1 0 0 4 2 2 0 0 0 0-4zM8 6a4 4 0 1 1 8 0 4 4 0 0 1-8 0zM5.076 17.007c.44.962 1.341 1.688 2.559 2.195 1.347.561 2.96.798 4.365.798s3.018-.237 4.365-.798c1.218-.507 2.119-1.233 2.559-2.195-.454-.917-1.512-1.662-2.908-2.199C14.508 14.228 12.88 14 12 14s-2.508.228-4.016.808c-1.396.537-2.454 1.282-2.908 2.2zm2.19-4.065C9.008 12.272 10.88 12 12 12s2.992.272 4.734.942c1.7.654 3.568 1.802 4.215 3.742a1 1 0 0 1 0 .632c-.625 1.876-2.165 3.045-3.814 3.732-1.653.689-3.54.952-5.135.952s-3.482-.263-5.135-.952c-1.649-.687-3.188-1.856-3.814-3.732a1 1 0 0 1 0-.632c.647-1.94 2.515-3.088 4.215-3.742z" fill="#000000" data-original="#000000" class=""></path></g></g></svg>